<?xml version="1.0" standalone="no"?><!DOCTYPE svg PUBLIC "-//W3C//DTD SVG 1.1//EN" "http://www.w3.org/Graphics/SVG/1.1/DTD/svg11.dtd"><svg class="icon" height="512" viewBox="0 0 1024 1024" version="1.1" xmlns="http://www.w3.org/2000/svg"><path d="M956 224.8c12-6 24-18 36-30l-72.1-84.1C685.8 260.9 547.7 423 505.7 597.1c-12 48-24 138.1 18 204.1v6c6 6 6 12 12 18s12 18 18 24l24 24c6 0 6 6 12 6 6 6 12 6 18 12 24 12 54 18 84.1 18 108.1 0 198.1-90.1 198.1-198.1S799.9 513 691.8 513c36-90 120.1-186.1 264.2-288.2zM493.6 224.8c12-6 24-18 36-30l-72.1-78.1C223.5 266.9 85.4 429 43.3 603.1c-12 48-24 138.1 18 204.1v6c6 6 6 12 12 18s12 18 18 24l24 24c6 0 6 6 12 6 6 6 12 6 18 12 24 12 54 18 84.1 18 108.1 0 198.1-90.1 198.1-198.1s-90-198.1-198-198.1c36-96 120-192.1 264.1-294.2z" /></svg>